<?xml version="1.0" encoding="UTF-8"?>
<svg id="Layer_1" data-name="Layer 1" xmlns="http://www.w3.org/2000/svg" viewBox="0 0 38.9 38.9">
  <defs>
    <style>
      .cls-1 {
        fill: #020203;
        stroke-width: 0px;
      }
    </style>
  </defs>
  <path class="cls-1" d="M38.36,1.47c0-.55-.44-.99-.99-.99s-.99.44-.99.99v33.72S1.98.64,1.98.64c-.39-.39-1.02-.39-1.4,0-.39.39-.39,1.01,0,1.4l34.4,34.55-33.82-.02h0c-.55,0-.99.44-.99.99s.44.99.99.99l36.21.03h0c.13,0,.26-.03.38-.07.1-.04.19-.11.27-.18.02-.01.04-.02.05-.04,0,0,0,0,0,0s0,0,0,0c.09-.09.17-.2.22-.32.05-.12.07-.25.07-.38,0,0,0,0,0,0V1.47Z"/>
</svg>