<svg xmlns="http://www.w3.org/2000/svg" width="319.764" height="316.507" viewBox="0 0 319.764 316.507">
  <path id="Path_2115" data-name="Path 2115" d="M220.1,107.388a6.044,6.044,0,1,1-6.02-5.5,5.773,5.773,0,0,1,6.02,5.5m-8.566,37.42c-3.849,0-6.975-2.836-6.975-6.367s3.126-6.4,6.975-6.4,6.975,2.865,6.975,6.4-3.126,6.367-6.975,6.367M208.666,75.09a4.691,4.691,0,1,1-5.093,4.66,4.9,4.9,0,0,1,5.093-4.66m-9.9,98.8c-3.878,0-7-2.865-7-6.4,0-3.5,3.126-6.367,7-6.367,3.849,0,6.975,2.865,6.975,6.367,0,3.531-3.125,6.4-6.975,6.4M175.79,196.235c-3.849,0-6.975-2.865-6.975-6.4,0-3.5,3.125-6.367,6.975-6.367s6.975,2.865,6.975,6.367c0,3.531-3.126,6.4-6.975,6.4M143.753,210.7c-4.312,0-7.814-3.212-7.814-7.148s3.5-7.119,7.814-7.119,7.814,3.184,7.814,7.119-3.5,7.148-7.814,7.148m-51.514,0c-4.312,0-7.814-3.212-7.814-7.148s3.5-7.119,7.814-7.119,7.814,3.184,7.814,7.119-3.5,7.148-7.814,7.148m123-164.931a5.729,5.729,0,0,1,.087-5.7l1.129-1.91a13.8,13.8,0,0,0,1.737-8.45c-.984-8.567-2.894-17.827-10.419-25.439a14.621,14.621,0,0,0-9.9-4.225c-12.039-.492-22.516,2.836-31.053,9.84a11.73,11.73,0,0,0-4.168,11.981c3.56,14.152,17.249,27.146,21.561,39.648C210.75,138.3,173.475,185.729,118,185.729S25.242,138.3,51.78,61.517c4.312-12.5,18-25.5,21.56-39.648A11.73,11.73,0,0,0,69.173,9.887C60.636,2.883,50.16-.445,38.12.048a14.621,14.621,0,0,0-9.9,4.225C20.7,11.884,18.788,21.145,17.8,29.712a13.8,13.8,0,0,0,1.736,8.45l1.129,1.91a5.729,5.729,0,0,1,.087,5.7C-34.636,147.586,28.715,225.754,118,225.754s152.632-78.168,97.24-179.981M27.326,75.09a4.691,4.691,0,1,1,0,9.348,4.694,4.694,0,1,1,0-9.348m-5.412,26.8a5.521,5.521,0,1,1,0,11,5.521,5.521,0,1,1,0-11m2.547,42.919c-3.849,0-6.975-2.836-6.975-6.367s3.125-6.4,6.975-6.4,6.975,2.865,6.975,6.4-3.126,6.367-6.975,6.367m12.763,29.085c-3.849,0-6.975-2.865-6.975-6.4,0-3.5,3.126-6.367,6.975-6.367,3.878,0,7,2.865,7,6.367,0,3.531-3.126,6.4-7,6.4M60.2,196.235c-3.849,0-6.975-2.865-6.975-6.4,0-3.5,3.126-6.367,6.975-6.367s6.975,2.865,6.975,6.367c0,3.531-3.126,6.4-6.975,6.4" transform="matrix(-0.848, 0.53, -0.53, -0.848, 319.764, 191.45)" fill="#020203" opacity="0.03"/>
</svg>
