<svg xmlns="http://www.w3.org/2000/svg" width="786.064" height="789.12" viewBox="0 0 786.064 789.12">
  <path id="Path_2124" data-name="Path 2124" d="M532.947,260.03c0,7.358-6.517,13.314-14.576,13.314S503.8,267.388,503.8,260.03s6.517-13.315,14.576-13.315,14.576,5.956,14.576,13.315m-20.742,90.609c-9.32,0-16.889-6.868-16.889-15.417s7.568-15.488,16.889-15.488,16.888,6.937,16.888,15.488-7.568,15.417-16.888,15.417m-6.938-168.816c6.867,0,12.4,5.046,12.4,11.283s-5.536,11.352-12.4,11.352c-6.8,0-12.333-5.116-12.333-11.352s5.536-11.283,12.333-11.283M481.3,421.066c-9.391,0-16.959-6.937-16.959-15.486,0-8.48,7.568-15.417,16.959-15.417,9.32,0,16.888,6.937,16.888,15.417,0,8.549-7.568,15.486-16.888,15.486m-55.641,54.1c-9.321,0-16.889-6.938-16.889-15.487,0-8.479,7.568-15.416,16.889-15.416s16.888,6.937,16.888,15.416c0,8.549-7.568,15.487-16.888,15.487M348.085,510.2c-10.441,0-18.921-7.778-18.921-17.308s8.48-17.239,18.921-17.239,18.92,7.709,18.92,17.239-8.479,17.308-18.92,17.308m-124.737,0c-10.441,0-18.921-7.778-18.921-17.308s8.479-17.239,18.921-17.239,18.921,7.709,18.921,17.239S233.79,510.2,223.349,510.2M521.175,110.836a13.874,13.874,0,0,1,.21-13.8l2.733-4.626a33.41,33.41,0,0,0,4.205-20.462c-2.383-20.743-7.008-43.167-25.228-61.6A35.4,35.4,0,0,0,479.129.115c-29.152-1.192-54.52,6.867-75.192,23.826-8.9,7.288-12.754,18.36-10.091,29.012,8.62,34.267,41.766,65.731,52.208,96,64.26,185.914-26,300.769-160.336,300.769S61.121,334.872,125.382,148.958c10.441-30.274,43.587-61.738,52.207-96C180.251,42.3,176.4,31.229,167.5,23.941,146.825,6.982,121.457-1.077,92.305.115A35.4,35.4,0,0,0,68.339,10.346C50.119,28.777,45.494,51.2,43.111,71.944a33.408,33.408,0,0,0,4.2,20.462l2.733,4.626a13.872,13.872,0,0,1,.21,13.8C-83.868,357.366,69.53,546.644,285.717,546.644S655.3,357.366,521.175,110.836M66.167,181.824c6.8,0,12.333,5.046,12.333,11.283s-5.536,11.352-12.333,11.352c-6.868,0-12.4-5.116-12.4-11.352s5.536-11.283,12.4-11.283m-13.1,64.892c8.059,0,14.576,5.956,14.576,13.315s-6.517,13.314-14.576,13.314-14.576-5.956-14.576-13.314S45,246.715,53.062,246.715m6.167,103.924c-9.321,0-16.888-6.868-16.888-15.417s7.568-15.488,16.889-15.488,16.888,6.937,16.888,15.488-7.568,15.417-16.888,15.417m30.9,70.426c-9.32,0-16.889-6.937-16.889-15.486,0-8.48,7.569-15.417,16.889-15.417,9.39,0,16.959,6.937,16.959,15.417,0,8.549-7.568,15.486-16.959,15.486m55.641,54.1c-9.32,0-16.888-6.938-16.888-15.487,0-8.479,7.568-15.416,16.888-15.416s16.888,6.937,16.888,15.416c0,8.549-7.568,15.487-16.888,15.487" transform="matrix(0.643, 0.766, -0.766, 0.643, 418.754, 0)" fill="#020203" opacity="0.03"/>
</svg>
