<svg xmlns="http://www.w3.org/2000/svg" width="272.483" height="277.916" viewBox="0 0 272.483 277.916">
  <path id="Path_2117" data-name="Path 2117" d="M203.07,99.079a5.577,5.577,0,1,1-5.554-5.073,5.326,5.326,0,0,1,5.554,5.073m-7.9,34.525a5.911,5.911,0,1,1,6.435-5.874,6.167,6.167,0,0,1-6.435,5.874M192.523,69.28a4.328,4.328,0,1,1-4.7,4.3,4.522,4.522,0,0,1,4.7-4.3m-9.132,91.159a6.2,6.2,0,0,1-6.462-5.9c0-3.231,2.884-5.874,6.462-5.874a5.911,5.911,0,1,1,0,11.775m-21.2,20.614a5.911,5.911,0,1,1,6.435-5.9,6.188,6.188,0,0,1-6.435,5.9M132.631,194.4c-3.979,0-7.209-2.964-7.209-6.595s3.231-6.569,7.209-6.569,7.209,2.937,7.209,6.569-3.231,6.595-7.209,6.595m-47.529,0c-3.979,0-7.209-2.964-7.209-6.595s3.231-6.569,7.209-6.569,7.21,2.937,7.21,6.569S89.081,194.4,85.1,194.4M198.584,42.232a5.286,5.286,0,0,1,.08-5.26l1.041-1.763a12.73,12.73,0,0,0,1.6-7.8c-.908-7.9-2.67-16.448-9.613-23.471a13.49,13.49,0,0,0-9.132-3.9C171.455-.41,161.789,2.66,153.912,9.122a10.823,10.823,0,0,0-3.845,11.055c3.284,13.057,15.914,25.046,19.893,36.581,24.485,70.839-9.906,114.6-61.093,114.6S23.289,127.6,47.774,56.758c3.978-11.535,16.608-23.524,19.892-36.581A10.822,10.822,0,0,0,63.822,9.122C55.945,2.66,46.279-.41,35.171.044a13.49,13.49,0,0,0-9.132,3.9c-6.942,7.023-8.7,15.567-9.612,23.471a12.729,12.729,0,0,0,1.6,7.8l1.041,1.763a5.286,5.286,0,0,1,.08,5.26c-51.106,93.936,7.343,166.056,89.717,166.056S249.69,136.168,198.584,42.232M25.212,69.28a4.328,4.328,0,1,1,0,8.625,4.33,4.33,0,1,1,0-8.625M20.218,94.006a5.094,5.094,0,1,1,0,10.146,5.094,5.094,0,1,1,0-10.146m2.35,39.6a5.911,5.911,0,1,1,0-11.776,5.911,5.911,0,1,1,0,11.776m11.775,26.835a5.911,5.911,0,1,1,0-11.775c3.578,0,6.462,2.643,6.462,5.874a6.2,6.2,0,0,1-6.462,5.9m21.2,20.614a5.911,5.911,0,1,1,6.435-5.9,6.188,6.188,0,0,1-6.435,5.9" transform="translate(78.029 277.916) rotate(-111)" fill="#020203" opacity="0.04"/>
</svg>
