<svg xmlns="http://www.w3.org/2000/svg" width="593.711" height="592.333" viewBox="0 0 593.711 592.333">
  <path id="Path_2116" data-name="Path 2116" d="M400.307,195.313c0,5.527-4.895,10-10.948,10s-10.948-4.474-10.948-10,4.9-10,10.948-10,10.948,4.474,10.948,10m-15.58,68.059c-7,0-12.685-5.158-12.685-11.58s5.685-11.633,12.685-11.633,12.685,5.211,12.685,11.633-5.685,11.58-12.685,11.58m-5.211-126.8c5.158,0,9.317,3.79,9.317,8.475s-4.158,8.527-9.317,8.527c-5.106,0-9.264-3.842-9.264-8.527s4.158-8.475,9.264-8.475m-18,179.7c-7.053,0-12.738-5.211-12.738-11.632,0-6.369,5.685-11.58,12.738-11.58,7,0,12.685,5.211,12.685,11.58,0,6.421-5.685,11.632-12.685,11.632m-41.793,40.635c-7,0-12.685-5.211-12.685-11.633,0-6.369,5.685-11.58,12.685-11.58s12.685,5.211,12.685,11.58c0,6.422-5.685,11.633-12.685,11.633m-58.268,26.318c-7.843,0-14.212-5.842-14.212-13s6.369-12.949,14.212-12.949,14.211,5.79,14.211,12.949-6.369,13-14.211,13m-93.692,0c-7.843,0-14.212-5.842-14.212-13s6.369-12.949,14.212-12.949,14.212,5.79,14.212,12.949-6.369,13-14.212,13m223.7-299.973a10.421,10.421,0,0,1,.158-10.369l2.053-3.474a25.1,25.1,0,0,0,3.158-15.369c-1.79-15.581-5.264-32.424-18.949-46.268a26.593,26.593,0,0,0-18-7.684c-21.9-.9-40.951,5.158-56.478,17.9a21.334,21.334,0,0,0-7.58,21.792c6.474,25.739,31.371,49.372,39.214,72.111C383.306,251.529,315.511,337.8,214.607,337.8s-168.7-86.27-120.431-225.913c7.843-22.739,32.739-46.372,39.214-72.111a21.334,21.334,0,0,0-7.58-21.792C110.283,5.244,91.229-.809,69.332.087a26.592,26.592,0,0,0-18,7.684C37.645,21.615,34.171,38.458,32.382,54.039A25.093,25.093,0,0,0,35.54,69.408l2.053,3.474a10.419,10.419,0,0,1,.158,10.369C-62.995,268.425,52.226,410.6,214.607,410.6s277.6-142.17,176.857-327.344M49.7,136.571c5.106,0,9.264,3.79,9.264,8.475s-4.158,8.527-9.264,8.527c-5.158,0-9.317-3.842-9.317-8.527s4.158-8.475,9.317-8.475m-9.843,48.741c6.053,0,10.948,4.474,10.948,10s-4.9,10-10.948,10-10.949-4.474-10.949-10,4.9-10,10.949-10m4.632,78.059c-7,0-12.685-5.158-12.685-11.58s5.684-11.633,12.685-11.633,12.685,5.211,12.685,11.633-5.685,11.58-12.685,11.58m23.212,52.9c-7,0-12.685-5.211-12.685-11.632,0-6.369,5.685-11.58,12.685-11.58,7.053,0,12.738,5.211,12.738,11.58,0,6.421-5.685,11.632-12.738,11.632m41.793,40.635c-7,0-12.685-5.211-12.685-11.633,0-6.369,5.685-11.58,12.685-11.58s12.685,5.211,12.685,11.58c0,6.422-5.685,11.633-12.685,11.633" transform="matrix(0.743, -0.669, 0.669, 0.743, 0, 287.201)" fill="#e6e6e6"/>
</svg>
