<svg xmlns="http://www.w3.org/2000/svg" xmlns:xlink="http://www.w3.org/1999/xlink" width="234.595" height="139.508" viewBox="0 0 234.595 139.508">
  <defs>
    <clipPath id="clip-path">
      <path id="Path_108" data-name="Path 108" d="M0,55.886H234.595V-83.622H0Z" transform="translate(0 83.622)" fill="none"/>
    </clipPath>
  </defs>
  <g id="Group_49" data-name="Group 49" clip-path="url(#clip-path)">
    <g id="Group_27" data-name="Group 27" transform="translate(13.58 0)">
      <path id="Path_86" data-name="Path 86" d="M6.993,17.684a.181.181,0,0,1-.03,0l-.005,0c-.205.013-.41.03-.614.05-.284.022-.567.047-.848.082-.13.017-.262.035-.392.053A18.56,18.56,0,0,0,7.736,54.745a18.323,18.323,0,0,0,18.08-16.435A34.542,34.542,0,0,0,40.7,41.641,34.725,34.725,0,0,0,53.15,39.355L76.118,41.6v.007a12.594,12.594,0,1,0,25.125,1.718,12.912,12.912,0,0,0-3.433-9.686l.06.005a12.4,12.4,0,0,0-1.3-1.215l-.06,0a12.393,12.393,0,0,0-6.443-2.7l0-.038c-.182-.02-.362-.038-.546-.052s-.369-.018-.551-.023l0,.038A12.539,12.539,0,0,0,77.83,35.963L66.213,30.246a30.051,30.051,0,0,0,4.96-7.96c.158-.217.337-.452.534-.7h49.113a10.111,10.111,0,0,0-.375,1.92c-.184,1.8-.33,3.6-.651,5.377a10.994,10.994,0,0,1-1.683,4c-.7,1.1-1.43,2.179-2.139,3.272a7.442,7.442,0,0,0-.517.976,3.885,3.885,0,0,1,1.557-.936l.053.067c-.052.085-.1.177-.158.259-.475.642-.964,1.276-1.428,1.929a5.978,5.978,0,0,0-1.016,3.026.181.181,0,0,0,.047.122,4.061,4.061,0,0,1,1.29-1.655,2.614,2.614,0,0,1-.062.28c-.257.741-.567,1.468-.762,2.226a12.546,12.546,0,0,0-.247,1.864,9.9,9.9,0,0,0-.038,1.261,6.839,6.839,0,0,1,1.914-3.759,20.328,20.328,0,0,1-1.93,5.959,9.644,9.644,0,0,0,1.852-2.676,11.4,11.4,0,0,0,1.031-3.07c.033,0,.067,0,.1.007,0,.219.013.439,0,.656a12.7,12.7,0,0,1-.777,3.295.6.6,0,0,0-.038.259,26.625,26.625,0,0,0,5.482-10.078c.023.007.047.013.07.018.057.244.115.487.2.821a2.842,2.842,0,0,0,.457-.492,17.933,17.933,0,0,0,1.026-2.079,21.664,21.664,0,0,0,1.194-6.018c.007-.09.03-.18.045-.27l.073-.008c.055.225.123.449.16.677q.183,1.114.344,2.231a3.493,3.493,0,0,1-.312,2.085c-1.051,2.2-2.436,4.187-3.622,6.3a14.345,14.345,0,0,0-.864,2.152q-1.119,3.086-2.205,6.186c-.17.487-.277,1-.405,1.5a.356.356,0,0,0,.163.38,3.215,3.215,0,0,1,1.218,2.6c-.015.669.083,1.341.133,2.012.01.133.062.194.217.187,1.066-.048,2.134-.082,3.2-.118.083,0,.167,0,.3,0-.1-.29-.175-.531-.265-.766a9.071,9.071,0,0,0-1.61-2.462,2.58,2.58,0,0,1-.6-2.419,22.855,22.855,0,0,1,1.081-3.235,22.174,22.174,0,0,1,1.662-2.724,9.473,9.473,0,0,1,2.359-2.446c1.336-1,2.578-2.127,3.881-3.171a16.058,16.058,0,0,1,1.486-.976,21.652,21.652,0,0,0,3.166-2.271c.375.541.781,1.041,1.1,1.595.159.277.309.559.46.839l1.647,3.572a6.422,6.422,0,0,1,.314,1.23,3.991,3.991,0,0,0,.746,1.535c.377.571.769,1.131,1.163,1.69.284.405.569.809.851,1.218q-.6,1.669-1.184,3.345c-.165.475-.269.973-.394,1.463a.35.35,0,0,0,.158.37,3.121,3.121,0,0,1,1.185,2.532c-.013.651.082,1.3.132,1.957.008.13.058.187.21.182,1.038-.047,2.075-.078,3.113-.115.082,0,.162,0,.3,0-.1-.284-.17-.517-.259-.746a8.791,8.791,0,0,0-1.567-2.4,2.506,2.506,0,0,1-.582-2.352c.147-.516.292-1.036.454-1.548.085.194.174.387.249.586a2.106,2.106,0,0,0,1.191,1.331.946.946,0,0,1,.389.437,8.072,8.072,0,0,1,.928,2.993c.047.435.087.492.51.5,1.023.012,2.045,0,3.085,0a.347.347,0,0,0,.008-.107,3.687,3.687,0,0,0-1.7-2.618,3.529,3.529,0,0,1-1.328-1.518c-.469-.817-.894-1.66-1.35-2.484-.3-.544-.6-1.084-.9-1.627.355-.594.757-1.166,1.134-1.748a9.193,9.193,0,0,1,2.294-2.377c1.3-.971,2.507-2.07,3.777-3.086a14.992,14.992,0,0,1,1.446-.949,21.279,21.279,0,0,0,3.08-2.209c.364.526.759,1.011,1.066,1.55.267.47.521.949.767,1.431-.12.969-.259,1.939-.444,2.9-.152.794-.132,1.622-.234,2.427-.145,1.149-.324,2.3-.5,3.44-.153,1-.34,1.989-.479,2.988a2.079,2.079,0,0,0,.1.8.5.5,0,0,0,.294.269,2.4,2.4,0,0,1,1.618,2.112c.058.429.085.861.128,1.328h.294c.7,0,1.39.007,2.085,0,.275,0,.552-.045.827-.067.172-.013.225-.118.2-.274a2.88,2.88,0,0,0-1.044-2.007c-.227-.165-.45-.334-.682-.489a2.565,2.565,0,0,1-1.154-2.558,23.552,23.552,0,0,1,.933-4.595q.133-.443.26-.886c.038.055.075.11.112.167.679,1.028,1.41,2.022,2.105,3.04a14.309,14.309,0,0,1,1.615,2.978,2.047,2.047,0,0,0,1.159,1.3.916.916,0,0,1,.379.425,7.878,7.878,0,0,1,.9,2.911c.045.424.083.479.5.484.994.013,1.99.005,3,.005a.324.324,0,0,0,.008-.1,3.589,3.589,0,0,0-1.653-2.548,3.436,3.436,0,0,1-1.291-1.478c-.455-.794-.871-1.613-1.313-2.416-.719-1.306-1.455-2.6-2.165-3.916a6.093,6.093,0,0,1-.8-2.241,8.218,8.218,0,0,1-.022-1.111q.063-2.643.138-5.282v0c.043-.13.09-.259.133-.389h0c.184.048.362.092.536.147a21.453,21.453,0,0,0,4.788,1.056,25.788,25.788,0,0,0,2.688.058,22.514,22.514,0,0,1-1.108,4.076c-.135.327-.3.637-.444.961a2.7,2.7,0,0,0-.225.646,1.6,1.6,0,0,0,.083.529,2.948,2.948,0,0,1,.128.557c0,.429-.127.512-.536.576-.427.067-.844.189-1.265.294a.283.283,0,0,0-.232.327c.028.806.042,1.612.062,2.417a1.406,1.406,0,0,0,.025.185c.052.289.108.32.387.237a3.451,3.451,0,0,0,2.461-2.439,11.361,11.361,0,0,1,.651-1.56,6.641,6.641,0,0,0,.512-1.548,15.462,15.462,0,0,1,.629-1.99c.4-1.154.883-2.281,1.27-3.443.117-.354.227-.711.322-1.074.237-.9.24-1.4-.143-1.89a4.408,4.408,0,0,0-.506-.425l-.427-.319c-1.058-.789-2.152-1.607-3.24-2.389-.462-.33-.956-.639-1.433-.936l-.4-.25a.736.736,0,0,1-.269-.269.615.615,0,0,1,.045-.6A6.167,6.167,0,0,0,167.37,25c-.022-.25-.042-.5-.062-.751-.033-.422-.068-.858-.115-1.285a4.594,4.594,0,0,1,.5-2.339c.152-.347.9-1.767,1.53-2.933.023-.042.047-.085.068-.127l.07-.128.325-.02c1.19-.073,2.671-.163,3.757-.269l.07-.007.065.032A17.5,17.5,0,0,1,176.744,19a13.778,13.778,0,0,1,1.138,1.158l.325.357a1.115,1.115,0,0,0,.993.347.511.511,0,0,0,.2-.058c.172-.1.344-.2.516-.3.127-.075.252-.15.38-.224a2.3,2.3,0,0,0,.524-.409,2.383,2.383,0,0,0,.41-2c-.169-.782-.454-1.538-.7-2.3a42.4,42.4,0,0,1-1.495-5.469c0-.025-.008-.05-.013-.075a2.966,2.966,0,0,0-.147-.562,4.931,4.931,0,0,1-.4-2.092,1.09,1.09,0,0,0-.44-.9c-.232-.19-.2-.35-.077-.584a4.245,4.245,0,0,0,.549-2.539l-2.1,1.962c-.077.072-.157.142-.227.219a.625.625,0,0,1-.726.157c-.8-.234-1.612-.412-2.417-.617a10.428,10.428,0,0,1-3.272-1.315.783.783,0,0,0-.142-.043l.322.632a10.975,10.975,0,0,1-2.419-.652l-.042.057c.128.143.257.285.43.48-.145.007-.254.022-.362.015-.632-.045-1.263-.1-1.9-.143a1.429,1.429,0,0,0-.2.02l.6.5c-.012.018-.023.038-.035.058a.324.324,0,0,1-.118.008,1.764,1.764,0,0,0-1.26.184c-.634.275-1.268.554-1.9.888l1.78.133c.007.018.015.037.022.057a2.032,2.032,0,0,1-.329.128c-.44.093-.891.152-1.326.269a5.085,5.085,0,0,0-.936.377c-.41.21-.814.439-1.2.689a3.848,3.848,0,0,1-2.15.505.613.613,0,0,0-.322.085l.8.689c-.008.027-.017.053-.023.08-1.081-.115-2.206.068-3.213-.561.062.492.884,1.109,1.93,1.515a6.006,6.006,0,0,1-.841.1c-1.093-.03-2.186-.088-3.278-.118a1.443,1.443,0,0,0-.594.158,7.789,7.789,0,0,1,2.387.914,1.211,1.211,0,0,1-.557.274C135.956,6.791,96.41-2.957,81.862-6.557l.032-.022c-.143-.042-.284-.087-.425-.135a1.448,1.448,0,0,1-.691-.489c-.449-.025-.859-.04-1.058-.035-.576.02-2.631-1.565-2.965-1.885s-.018-1.508-.315-2.339-.7-.868-.611-2.037-.018-1.471-.222-1.735a16.626,16.626,0,0,1-1.3-1.433c-.222-.4-.073-.49-.073-.49a1.438,1.438,0,0,0,1.889-1.131c.334-1.6.037-2.094-.073-2.226s.073-.454.073-.454a1.78,1.78,0,0,0,.073-1.093c.445-.792.167-1.133,0-1.133a1.7,1.7,0,0,1-1.036-.981,5.549,5.549,0,0,1,0-1.885c-3.705-1.547-6.448,1.885-6.448,1.885l1.261,1.66c-1.111,3.018.757,3.924.757,3.924s-4.676,5.639-3.961,25.222q-.11-.03-.21-.05V-7.278H65.277V7.737L51.3,10.925c-1.184.32-.963,1.131-.963,1.131v.152l-1.021.3c-1.894.514-1.972,1.078-1.972,2.307v2.414a3.445,3.445,0,0,0-1.4,2.921v7.222c-5.2,2.831-11.1.022-11.441-.147V20.37a4.334,4.334,0,0,0-.023-.447v-4.7c0-1.23-.078-1.8-1.962-2.307l-2.366-.707v-.716c-.2-.661-1.074-.792-1.074-.792s-.485-.1-1.28-.26a1.863,1.863,0,0,0-.609-.232S20.937,8.952,16.466,7.841a8.592,8.592,0,0,1-2.5-.914c-.816-.9.741-1.283,0-1.81a2.841,2.841,0,0,0-1.783.08.358.358,0,0,0-.107-.574c-.526-.374-2.394.275-3.752.549A8.44,8.44,0,0,1,7.3,3.133L.036,1.172C-6.186-.639-5,1.172-5,1.172-5.446,6.6-3.816,4.944-3.816,4.944,5.3,6.83,3,7.962,3,7.962-.629,8.263.036,9.169.036,9.169a5.257,5.257,0,0,1,.889,3.018,54.958,54.958,0,0,1,7.15,2.194c.02.105.035.21.055.315.055.264.112.526.172.787q.17,1.1.422,2.179c-.579-.02-1.158-.013-1.732.022m.742,3.952h0M2.4,22.508l.058.157c.135-.057.275-.107.414-.157-.138.05-.279.1-.414.157L6.216,33a3.484,3.484,0,0,0-.716.469L-2.151,25.67l-.113-.117A14.372,14.372,0,0,1,2.4,22.508M-2.73,26.027l.113.115L5.04,33.935a3.452,3.452,0,0,0-.405.609l-10.022-4.2-.133-.057A14.843,14.843,0,0,1-2.73,26.027M-5.769,30.9l.13.055L4.384,35.163a3.92,3.92,0,0,0-.138.714H-6.734A14.926,14.926,0,0,1-5.769,30.9m-.842,5.592c0-.08-.007-.16-.007-.242,0-.108.005-.215.008-.322,0,.107-.008.214-.008.322,0,.082.005.162.007.242m.842,5.023a14.934,14.934,0,0,1-.964-4.975H4.246a3.968,3.968,0,0,0,.138.711L-5.668,41.474Zm3.113,4.8-.073.075a14.876,14.876,0,0,1-2.791-4.263l.1-.042L4.634,37.872a3.554,3.554,0,0,0,.405.614ZM2.4,49.91a14.331,14.331,0,0,1-4.661-3.05l.07-.07L5.5,38.955a3.4,3.4,0,0,0,.716.464L2.429,49.827Zm5.01,1.034a14.208,14.208,0,0,1-4.4-.8l.032-.082h0L6.831,39.65a3.408,3.408,0,0,0,.576.11v11.1Zm0-29.3h0V32.658a3.4,3.4,0,0,0-.576.105L3.068,22.433l-.058-.157a14.206,14.206,0,0,1,4.4-.8Zm.329,29.222h0M80.993,49a10.273,10.273,0,0,1-1.732-3.073l.072-.025h0l7.134-2.436a2.417,2.417,0,0,0,.252.442l-5.669,5.043c.09.112.185.222.28.329-.1-.107-.19-.217-.28-.329ZM84.4,51.615l-.025.057a9.94,9.94,0,0,1-3.08-2.326l.052-.045h0l5.667-5.047a2.409,2.409,0,0,0,.474.355L84.4,51.615c.04.02.082.038.122.057-.04-.018-.082-.037-.122-.057m3.388.948,0,.06a9.871,9.871,0,0,1-3-.762l.023-.055L87.9,44.8a2.377,2.377,0,0,0,.392.1ZM95.1,50.291a9.933,9.933,0,0,1-3.355,1.885l-.017-.058c-.145.047-.29.092-.437.132l.018.058a9.877,9.877,0,0,1-3.073.345l.005-.058-.1-.005.1.005.505-7.663a2.693,2.693,0,0,0,.4-.045l2.142,7.362c.145-.04.29-.085.434-.132L89.58,44.752a2.344,2.344,0,0,0,.519-.285l4.953,5.772c.08-.067.157-.137.234-.207-.077.07-.153.14-.234.207Zm.342-.3-.047-.055h0l-4.955-5.771a2.491,2.491,0,0,0,.307-.405l6.75,3.387.065-.135c-.022.045-.043.092-.065.135l.067.033a10.249,10.249,0,0,1-2.122,2.811m2.322-3.223-.068-.033h0l-6.748-3.39a2.428,2.428,0,0,0,.128-.484l7.5.514h0l.083.005a10.3,10.3,0,0,1-.891,3.388m.39-7.3.093-.032a10.367,10.367,0,0,1,.439,3.48l-.087-.007c0,.025,0,.052,0,.077,0-.025,0-.052,0-.077L91.1,42.4a2.445,2.445,0,0,0-.063-.5Zm-1.867-3.467.082-.073A10.242,10.242,0,0,1,98.1,39l-.093.032c.007.02.013.04.02.058-.007-.018-.013-.038-.02-.058l-7.112,2.429a2.241,2.241,0,0,0-.25-.439l5.641-5.018h0M89.57,32.426l.007-.117a.466.466,0,0,1,.1.013,8.041,8.041,0,0,1,2.933.724l-.07.132c.137.058.274.122.407.185l.06-.137.1.092a9.965,9.965,0,0,1,2.961,2.264l-.083.073h0l-5.636,5.02a2.428,2.428,0,0,0-.475-.357l3.07-6.954c-.133-.065-.269-.128-.405-.187l-.052.1-3.025,6.853a2.564,2.564,0,0,0-.394-.1l.5-7.6c-.045,0-.088-.008-.132-.013l.132.013m-7.649,2.516.073.085c.112-.105.227-.205.344-.3l-.073-.087a9.913,9.913,0,0,1,3.357-1.882l.032.11c.143-.045.289-.09.434-.13l-.032-.112a9.816,9.816,0,0,1,3.071-.344l-.008.115h0l-.5,7.6a2.431,2.431,0,0,0-.4.045l-2.129-7.309c-.147.04-.29.083-.434.132l2.127,7.309a2.382,2.382,0,0,0-.517.29l-4.925-5.742c-.117.1-.232.2-.344.3L86.435,40.2,80.16,37.111a10.157,10.157,0,0,1,1.76-2.169M79.6,38.164l.088.045h0l6.727,3.375c-.012.035-.022.07-.032.105l-7.6-.744a10.291,10.291,0,0,1,.817-2.781m-.923,3.849.085.005h0l5.417.372,2.082.2a2.635,2.635,0,0,0,.058.434l-7.13,2.441h0l-.073.025a10.378,10.378,0,0,1-.439-3.48m83.579-6.491c.033.01.065.018.1.027-.033-.008-.067-.017-.1-.027h0m-.027.189c0-.008,0-.02,0-.028,0,.008,0,.02,0,.028,0,.025,0,.05,0,.075,0-.025,0-.05,0-.075m-19.279,5.063a12.212,12.212,0,0,0-.792,1.954,6.061,6.061,0,0,1-.407-1.1,4.148,4.148,0,0,1-.11-.6,8.676,8.676,0,0,1-.023-1.141q.068-2.833.148-5.664c0-.05.013-.1.027-.194,0,0,2.509.878,4.339,1.288-.971,1.874-2.15,3.619-3.181,5.455M80.719-5.746l.566-.4c13.95,3.455,52.572,12.984,72.206,17.431-.377.042-.821.087-1.351.133a1.417,1.417,0,0,0,.272.19c.385.135.774.255,1.161.38.194.063.385.13.577.194v.082c-.279.115-.552.245-.836.344a3.855,3.855,0,0,0-2.045,1.518.39.39,0,0,0-.067.175c.986-.561,2.044-.279,3.07-.354l.037.067c-.135.108-.265.227-.409.324-.5.335-1.006.659-1.507,1a3.559,3.559,0,0,1-1.872.475,65.356,65.356,0,0,1-7-.065c-.566-.032-1.129-.055-1.7-.077C124.3,9.871,94.7-.4,79.241-5.788Zm-2.16.287C93.422-.276,122,9.649,139.911,15.595c-.854-.03-1.707-.06-2.559-.1a11.132,11.132,0,0,0-6.8,1.954c-.3.2-.606.38-.933.586-.057-.073-.122-.15-.178-.234a6.811,6.811,0,0,0-1.54-1.717,2.751,2.751,0,0,0-3-.284c-.858.419-1.69.893-2.546,1.35.344.207.711-.04,1.149.027l-1.5,1.123.966-.108c-.24.28-.427.517-.632.736a6.377,6.377,0,0,0-.787,1.024H73.192a10.9,10.9,0,0,1,7.157-3.387,7.254,7.254,0,0,1,.439.831H97.382s.444-.148.444-1.291V2.836h0V2.082a.414.414,0,0,0-.412-.419H95.049a.414.414,0,0,0-.412.419v.455a.059.059,0,0,0-.015-.007c0,.846.008,1.72.015,2.584V8.146a.415.415,0,0,0,.027.145c.025,2.639.052,4.653.052,4.653h-3.72a12.055,12.055,0,0,1-1.828-2.4c-1.723-2.886-.5-7.751-.445-8.77S88.332.59,87.665.195,79.887-3.569,79-4.276a1.057,1.057,0,0,1-.439-1.183M77.65,16.094c.355-.41.747-.9,1.149-1.445a10.239,10.239,0,0,1,.939,1.034,9.879,9.879,0,0,0-2.089.41m2.714-6c-.03-.055-.06-.107-.088-.163A2.857,2.857,0,0,1,81.59,5.718a16.659,16.659,0,0,1-1.226,4.371m2.177-4.8a5.9,5.9,0,0,1,.567-.174l3.405,7.828H85.381A4.9,4.9,0,0,1,80.96,11,17.657,17.657,0,0,0,82.541,5.29m-9.176,7.759c.005-.028.01-.055.013-.083l0-.055c0-.045,0-.088.007-.133a9.4,9.4,0,0,1,2.666.167,5.77,5.77,0,0,1,2.057,1.1,19.61,19.61,0,0,1-2.633,3h0a14.848,14.848,0,0,0-3.355,2.666,28.59,28.59,0,0,0,1.248-6.662M77.4,36.764a12.9,12.9,0,0,0-1.188,3.931L54.931,38.613A32.621,32.621,0,0,0,65.584,30.95ZM66.063,28.226c-.067.09-6.69,9.082-17.833,10.761l-.34.052V27.755h3.03l.068-.01H66.252l-.007.01H66.4ZM48.017,14.819c0-1.033,0-1.248,1.481-1.65l.841-.252V15.69l-1.093.477a10.177,10.177,0,0,0-1.23.609Zm2.221,2.975c2.242-.711,19.923-4.8,20.675-4.972l.4-.093,0,.027h0l-.027.237c0,.008-.01.093-.028.242-.112.984-1.109,9-4.464,13.41l-.087.113-.142,0-18.67.125V20.943a3.257,3.257,0,0,1,2.346-3.15M34.294,28.721l.4.167a16.221,16.221,0,0,0,2.926.814,14.067,14.067,0,0,0,5.851-.087,9.1,9.1,0,0,0,2.276-.926l.434-.25v10.5l-.24.043a35.433,35.433,0,0,1-5.614.472,16.709,16.709,0,0,1-5.847-.876l-.187-.072ZM33,38.653l-.332-.053c-10.5-1.657-16.738-10.525-16.8-10.615l-.322-.467h.082l-.007-.01H32.83v.01H33ZM14.666,29.622a31.491,31.491,0,0,0,2.18,2.4l-6.014,2.522a3.434,3.434,0,0,0-.4-.609Zm-4.7,3.842A3.519,3.519,0,0,0,9.249,33l2.669-7.324A30.124,30.124,0,0,0,14.25,29.1Zm7.4-.939a32.267,32.267,0,0,0,4.186,3.352H11.221a3.425,3.425,0,0,0-.138-.714ZM30.151,14.512V12.921l2.184.652c1.473.4,1.473.616,1.473,1.648v2.933A6.218,6.218,0,0,0,31.2,16.382l-1.048-.457ZM10.864,12.7l.4.1c.711.172,17.424,4.2,19.546,4.9a3.234,3.234,0,0,1,2.224,3.125v5.846l-17.808-.125-.085-.118a20.023,20.023,0,0,1-2.678-5.764,44.194,44.194,0,0,1-1.625-7.7l-.023-.24.058.015Zm-2.8,8.78a.79.79,0,0,1,.14.008,14.327,14.327,0,0,1,1.745.112,29.344,29.344,0,0,0,1.55,3.323L8.638,32.763a3.485,3.485,0,0,0-.577-.105V21.644h0Zm0,29.382h0V39.76a4.1,4.1,0,0,0,.577-.105l3.789,10.405c.207-.073.412-.15.616-.234L9.249,39.418a3.429,3.429,0,0,0,.721-.464l7.694,7.836c.157-.153.31-.31.46-.472L10.43,38.486a3.536,3.536,0,0,0,.4-.614l10.057,4.218c.088-.2.17-.407.249-.616L11.082,37.253a3.457,3.457,0,0,0,.138-.711H22.08c0-.1.008-.194.008-.29a.1.1,0,0,0,0-.023.1.1,0,0,1,0,.023c0,.1-.005.194-.008.29H22.2a14.975,14.975,0,0,1-.963,4.975l-.1-.043c-.078.209-.16.414-.249.616l.1.042A14.846,14.846,0,0,1,18.2,46.394l-.072-.075c-.15.162-.3.319-.46.472l.068.07a14.377,14.377,0,0,1-4.66,3.05l-.03-.083c-.2.083-.409.16-.616.234l.03.082a14.188,14.188,0,0,1-4.4.8Z" transform="translate(10.464 26.46)" fill="#020203"/>
    </g>
    <g id="Group_28" data-name="Group 28" transform="translate(191.143 32.421)">
      <path id="Path_87" data-name="Path 87" d="M5.265,1.128a4.556,4.556,0,0,0-.876.352c.02.055.04.11.06.163a3.145,3.145,0,0,1,.162.616l.013.073A36.816,36.816,0,0,0,5.916,7.149l.2.617c.065.207.133.414.2.619a16.508,16.508,0,0,1,.5,1.708v0a2.605,2.605,0,0,1-1.283,2.931c-.125.072-.249.145-.374.219-.175.105-.35.209-.529.307a1.033,1.033,0,0,1-.4.122,1.63,1.63,0,0,1-1.42-.514c-.112-.118-.222-.24-.33-.36a13.517,13.517,0,0,0-1.093-1.114A15.877,15.877,0,0,0-1.6,9.972c-1.086.1-2.534.19-3.7.262l-.038,0C-6,11.473-6.71,12.815-6.845,13.127A3.97,3.97,0,0,0-7.3,15.189c.047.434.082.874.117,1.3.018.249.038.5.062.746a6.719,6.719,0,0,1-.709,3.777.362.362,0,0,0-.043.105c.005,0,.025.022.078.055l.4.249c.485.3.986.614,1.461.956,1.093.786,2.189,1.6,3.248,2.394l.427.319A2.121,2.121,0,0,1-1.3,27.821l.162-.02c.5-.06,1-.108,1.533-.165-.02.374-.022.721-.058,1.066C.15,30.447-.029,32.194-.359,33.92c-.142.747-.125,1.525-.22,2.282-.137,1.081-.3,2.157-.47,3.233-.143.936-.319,1.869-.449,2.808a1.9,1.9,0,0,0,.093.749.467.467,0,0,0,.277.252A2.258,2.258,0,0,1,.39,45.23c.057.4.08.809.122,1.248H.789c.652,0,1.3.007,1.959,0,.26,0,.519-.042.779-.063.16-.012.212-.11.187-.255a2.7,2.7,0,0,0-.983-1.887c-.212-.155-.422-.314-.641-.459a2.412,2.412,0,0,1-1.084-2.4,22.272,22.272,0,0,1,.876-4.318c.412-1.366.782-2.748,1.228-4.1.3-.9.722-1.765,1.043-2.663.45-1.256.873-2.524,1.276-3.8.212-.664.247-.734.9-.549.894.25,1.778.541,2.664.824.784.25,1.563.514,2.346.772a.968.968,0,0,1,.6.541c.1.209.26.384.365.591a.733.733,0,0,1,.107.43,25.249,25.249,0,0,1-1.171,4.449c-.125.305-.284.6-.415.9a2.514,2.514,0,0,0-.212.606,1.5,1.5,0,0,0,.078.5,2.755,2.755,0,0,1,.12.524c0,.4-.118.482-.5.542-.4.062-.792.177-1.188.275a.266.266,0,0,0-.219.307c.027.757.04,1.515.058,2.272a1.205,1.205,0,0,0,.023.174c.05.272.1.3.365.224a3.25,3.25,0,0,0,2.312-2.292,10.707,10.707,0,0,1,.611-1.466,6.191,6.191,0,0,0,.48-1.456,14.711,14.711,0,0,1,.592-1.869c.492-1.418,1.114-2.786,1.495-4.246a1.772,1.772,0,0,0-.792-2.379c-1.146-.856-2.291-1.713-3.45-2.548-.559-.4-1.151-.756-1.733-1.124-.205-.128-.244-.25-.122-.482a6.014,6.014,0,0,0,.637-3.408c-.057-.639-.1-1.28-.165-1.917a4.022,4.022,0,0,1,.449-2.069,31.924,31.924,0,0,1,2.271-4.274c.2-.31.437-.589.694-.928a7.51,7.51,0,0,1,.556.722,3.345,3.345,0,0,0,1.793,1.4,9.325,9.325,0,0,1,2.809,1.642,17.95,17.95,0,0,1,1.355,1.4,1.288,1.288,0,0,0,1.133.405.713.713,0,0,0,.279-.085c.285-.158.562-.33.846-.492a2.21,2.21,0,0,0,1.084-2.482c-.157-.734-.425-1.445-.652-2.164a39.28,39.28,0,0,1-1.418-5.21,2.71,2.71,0,0,0-.138-.529A4.66,4.66,0,0,1,19.9,2.092a1.023,1.023,0,0,0-.414-.844C19.27,1.068,19.3.916,19.417.7a3.987,3.987,0,0,0,.516-2.386q-.986.921-1.974,1.843c-.072.068-.148.132-.214.205a.587.587,0,0,1-.682.147c-.749-.22-1.513-.385-2.271-.579a9.825,9.825,0,0,1-3.076-1.235.6.6,0,0,0-.132-.042c.105.209.192.377.3.594a10.3,10.3,0,0,1-2.272-.614c-.013.018-.027.037-.04.053.12.135.24.27.405.452a2.849,2.849,0,0,1-.342.013c-.594-.042-1.186-.09-1.78-.133a1.209,1.209,0,0,0-.184.018l.564.47c-.01.018-.022.037-.032.053a.292.292,0,0,1-.112.01,1.643,1.643,0,0,0-1.183.172C6.314,0,5.719.262,5.127.576L6.8.7A.509.509,0,0,1,6.82.754a2,2,0,0,1-.309.12c-.415.088-.837.143-1.246.254" transform="translate(7.878 1.688)" fill="#020203"/>
    </g>
    <g id="Group_29" data-name="Group 29" transform="translate(72.516 39.952)">
      <path id="Path_88" data-name="Path 88" d="M0,5.126H.089v-.01L9.58,5.053l.794-.005-.794.005-.065.01L12.7,5.041l.063-.01h0L17.95,5C20.854,1.06,21.93-5.9,22.164-7.67,19.448-7.039,3.973-3.447,1.937-2.8A2.625,2.625,0,0,0,0-.344c0,.062,0,.1,0,.112Z" transform="translate(0 7.67)" fill="#020203"/>
    </g>
    <g id="Group_30" data-name="Group 30" transform="translate(58.919 55.901)">
      <path id="Path_89" data-name="Path 89" d="M4.3,3.6v-9c-4.278,2.185-9.279.671-10.726.15V3.265A11.363,11.363,0,0,0-4.245,3.8,32.151,32.151,0,0,0,4.3,3.6" transform="translate(6.429 5.394)" fill="#020203"/>
    </g>
    <g id="Group_31" data-name="Group 31" transform="translate(35.574 39.925)">
      <path id="Path_90" data-name="Path 90" d="M8.381,5.045V-.21A2.6,2.6,0,0,0,6.557-2.754C4.639-3.39-9.919-6.915-12.54-7.549c.222,1.752,1.24,8.6,3.977,12.476Z" transform="translate(12.54 7.549)" fill="#020203"/>
    </g>
    <g id="Group_32" data-name="Group 32" transform="translate(40.732 54.569)">
      <path id="Path_91" data-name="Path 91" d="M6.217,3.929c.072.013.14.028.212.04V-5.879H-9.3c1.406,1.8,6.964,8.23,15.519,9.808" transform="translate(9.302 5.879)" fill="#020203"/>
    </g>
    <g id="Group_33" data-name="Group 33" transform="translate(72.55 54.808)">
      <path id="Path_92" data-name="Path 92" d="M0,4C9.221,2.467,15.208-4.159,16.708-5.991H0Z" transform="translate(0 5.991)" fill="#020203"/>
    </g>
    <g id="Group_34" data-name="Group 34" transform="translate(0 101.528)">
      <path id="Path_93" data-name="Path 93" d="M1.878,7.625H1.826a.89.89,0,0,1-.664-.262C.687,6.951.648,5.784.625,5.086L.618,4.913v-8.69l.33-.362.209-.133a1.925,1.925,0,0,1,2.3.324,4.084,4.084,0,0,1,1.111,2L5.608,1.5l.911,3.45c.36,1.42.409,2.127.17,2.442a.757.757,0,0,1-.656.23H5.982v.3h4.66v-.3H10.59c-.859,0-1.3-.676-1.879-2.891L7.717.922l-1.351-3.9h-.03A3.128,3.128,0,0,0,5.56-4.084,4.351,4.351,0,0,0,1.688-5l3.151-3.7a8.347,8.347,0,0,1,4.072-2.421l.042-.01v-.287H4.534v.282l.035.013a1.082,1.082,0,0,1,.651.639,1.313,1.313,0,0,1-.432,1.138L.642-4.47l-.023.017V-8.18c0-2.221.294-2.933,1.208-2.933h.052v-.3H-2.81v.3h.052c.914,0,1.208.712,1.208,2.933V4.693a11.737,11.737,0,0,1-.107,1.663c-.093.627-.3,1.27-1.1,1.27H-2.81v.3H1.878Z" transform="translate(2.81 11.41)" fill="#020203"/>
    </g>
    <g id="Group_35" data-name="Group 35" transform="translate(13.617 101.527)">
      <path id="Path_94" data-name="Path 94" d="M6.431.12h.052v-.3H3.056v.3h.052C4.46.12,4.529,1.878,4.529,2.23v7.834c.07,2.669-.449,6.221-3.323,7.978a5.27,5.27,0,0,1-3.37.706,3.781,3.781,0,0,1-2.644-1.92A12.513,12.513,0,0,1-6.2,10.064V3.053C-6.2.86-5.89.12-4.987.12h.052v-.3H-9.622v.3h.052c.914,0,1.208.712,1.208,2.933v7.012c0,1.884.394,6.483,4.049,8.483a6.853,6.853,0,0,0,2.082.691l.14.013c.138.013.25.025.374.025a2.009,2.009,0,0,0,.215-.012,5.758,5.758,0,0,0,4.309-1.872,10.347,10.347,0,0,0,2.2-7.329V2.23c0-.217.04-2.11,1.421-2.11" transform="translate(9.622 0.179)" fill="#020203"/>
    </g>
    <g id="Group_36" data-name="Group 36" transform="translate(31.198 101.528)">
      <path id="Path_95" data-name="Path 95" d="M4.724.207c2.859,0,4.618.749,5.53,2.356l.015.027h.324L9.342-.31H-5.843l-1.225,2.9h.3l.015-.025C-5.8.935-4.085.207-1.2.207H.651V15.794c0,.686,0,2.114-.494,2.646a.925.925,0,0,1-.687.285H-.582v.3H4.106v-.3H4.053c-.757,0-.988-.519-1.1-1.3a11.307,11.307,0,0,1-.105-1.635V.207Z" transform="translate(7.068 0.31)" fill="#020203"/>
    </g>
    <g id="Group_37" data-name="Group 37" transform="translate(49.687 101.528)">
      <path id="Path_96" data-name="Path 96" d="M5.014,5.3C4.552,3.569,2.186,2.176-.1.83-2.367-.5-4.709-1.881-5.171-3.571a2.546,2.546,0,0,1,.577-2.583,4.655,4.655,0,0,1,4.4-1.033A4.386,4.386,0,0,1,3.037-3.953h0a.948.948,0,0,0,.752.757,1.17,1.17,0,0,0,1.128-.549,1.459,1.459,0,0,0-.07-1.592c-1.119-1.882-3.8-2.916-6.526-2.514A5.619,5.619,0,0,0-6.612-3.872C-7.365-.9-3.836,1.263-.722,3.17A15.247,15.247,0,0,1,3.314,6.2a2.448,2.448,0,0,1,.359,2.809c-.682,1.174-2.452,1.817-4.3,1.565A5.917,5.917,0,0,1-5.6,5.908c-.083-.334-.4-.487-.816-.394A1.477,1.477,0,0,0-7.47,7.3,4.728,4.728,0,0,0-4,10.916,9.076,9.076,0,0,0-1.05,11.4,7.371,7.371,0,0,0,3.991,9.662,4.2,4.2,0,0,0,5.014,5.3" transform="translate(7.502 7.937)" fill="#020203"/>
    </g>
    <g id="Group_38" data-name="Group 38" transform="translate(63.545 101.541)">
      <path id="Path_97" data-name="Path 97" d="M7.514,5.3l-.469-.24L7.02,5.1c-2.042,3.62-5.482,5.581-8.977,5.112-3.322-.445-5.881-2.9-6.847-6.578-1.273-4.878.826-9.7,4.68-10.754,2.9-.8,5.886.839,7.794,4.276a1.281,1.281,0,0,0,1.156.754A1.318,1.318,0,0,0,5.9-2.9a1.131,1.131,0,0,0-.135-1.183,9.512,9.512,0,0,0-10-3.525A9.4,9.4,0,0,0-9.97-3.129a9.783,9.783,0,0,0-.946,7.339,9.049,9.049,0,0,0,7.544,7.082,9.368,9.368,0,0,0,1.275.087A11.259,11.259,0,0,0,7.485,5.344Z" transform="translate(11.243 7.924)" fill="#020203"/>
    </g>
    <g id="Group_39" data-name="Group 39" transform="translate(83.114 101.528)">
      <path id="Path_98" data-name="Path 98" d="M4.843,7.116c-.148.786-.384,1.271-1.1,1.271H3.69v.3h4.66v-.3H8.3A.88.88,0,0,1,7.61,8.1C7.117,7.6,7.117,6.1,7.117,5.456V-7.418c0-2.192.3-2.931,1.181-2.931h.052v-.3H3.69v.3h.052c.883,0,1.181.739,1.181,2.931v4.111h-8.74V-7.418c0-2.219.292-2.931,1.206-2.931h.053v-.3H-7.246v.3h.052c.9,0,1.208.739,1.208,2.931V5.456a11.729,11.729,0,0,1-.107,1.662c-.1.629-.3,1.27-1.1,1.27h-.052v.3h4.688v-.3h-.053A1.013,1.013,0,0,1-3.35,8.1c-.467-.5-.467-2.005-.467-2.646V-2.79h8.74V5.456a11.548,11.548,0,0,1-.08,1.66" transform="translate(7.246 10.648)" fill="#020203"/>
    </g>
    <g id="Group_40" data-name="Group 40" transform="translate(100.213 101.528)">
      <path id="Path_99" data-name="Path 99" d="M2.115.207c2.878,0,4.645.749,5.557,2.356l.015.027H8.01L6.786-.31h-9.95v.3h.052c.9,0,1.208.739,1.208,2.931V15.794c0,.641,0,2.14-.5,2.649a.888.888,0,0,1-.711.282h-.052v.3h9.95l1.225-2.9H7.687l-.015.025c-.913,1.608-2.679,2.357-5.557,2.357H.264V8.37H3.132c.345,0,2.065.07,2.065,1.453v.053H5.49v-3.5H5.2v.053C5.2,7.5,4.085,7.88,3.132,7.88H.264V.207Z" transform="translate(3.164 0.31)" fill="#020203"/>
    </g>
    <g id="Group_41" data-name="Group 41" transform="translate(112.863 101.528)">
      <path id="Path_100" data-name="Path 100" d="M1.373,7.625H1.322c-1.031,0-1.4-1.136-1.4-2.11V-9.848L10.282,7.9l.015.027h3.11v-.3h-.075c-.767-.047-1.158-.514-1.158-2.933V-9c0-.973.365-2.11,1.4-2.11h.052v-.3H10.194v.3h.052c1.408,0,1.45,1.9,1.45,2.11V5.9L1.615-11.29v-.12H-1.813v.3h.1C-1.059-11.065-.665-10.7-.58-9V5.515c0,.352-.068,2.11-1.421,2.11h-.053v.3H1.373Z" transform="translate(2.055 11.41)" fill="#020203"/>
    </g>
    <g id="Group_42" data-name="Group 42" transform="translate(130.043 101.528)">
      <path id="Path_101" data-name="Path 101" d="M1.867,7.625H1.816A1.077,1.077,0,0,1,1.1,7.342,5.027,5.027,0,0,1,.634,4.693V-2.731H3.5c.953,0,2.065.374,2.065,1.426v.053h.292v-3.5H5.569V-4.7c0,1.44-1.853,1.48-2.065,1.48H.634v-7.671h1.93c2.819.023,4.56.772,5.477,2.356l.015.027h.3l-1.225-2.9H-2.794v.3h.053c.893,0,1.179.707,1.179,2.906v12.9A11.268,11.268,0,0,1-1.64,6.328c-.145.8-.38,1.3-1.1,1.3h-.053v.3H1.867Z" transform="translate(2.794 11.41)" fill="#020203"/>
    </g>
    <g id="Group_43" data-name="Group 43" transform="translate(137.977 101.528)">
      <path id="Path_102" data-name="Path 102" d="M4.058,7.625H4.006v.3h5.17v-.3H9.123c-.916,0-1.807-1.782-2.254-2.839L1.722-11.373l-.012-.037H-1.7v.32l.048.005A2.159,2.159,0,0,1,.014-9.618L.331-8.455l-3.88,12.5c-.582,1.84-1.133,3.579-2.471,3.579h-.052v.3h3.428v-.3h-.205A.882.882,0,0,1-3.493,7.2a2.394,2.394,0,0,1,.07-1.862L-2.594,2.6A2.4,2.4,0,0,1-.18.982h.033A5.087,5.087,0,0,1,4.33,4l.269.849a3.059,3.059,0,0,1,.037,2.477.671.671,0,0,1-.577.3M.082.488c-.065,0-.132-.005-.2-.005a3.071,3.071,0,0,0-2.019.674L.6-7.623l3.12,9.828A5.535,5.535,0,0,0,.082.488" transform="translate(6.072 11.41)" fill="#020203"/>
    </g>
    <g id="Group_44" data-name="Group 44" transform="translate(154.728 101.527)">
      <path id="Path_103" data-name="Path 103" d="M6.227.12h.052v-.3H1.619v.3h.052c.883,0,1.181.741,1.181,2.933V7.162h-8.74V3.053C-5.889.832-5.595.12-4.682.12h.053v-.3H-9.317v.3h.052c.9,0,1.208.741,1.208,2.933V15.925a11.737,11.737,0,0,1-.107,1.663c-.1.627-.3,1.27-1.1,1.27h-.052v.3h4.688v-.3h-.053a1.02,1.02,0,0,1-.739-.285c-.467-.505-.467-2.007-.467-2.648V7.679h8.74v8.246a11.548,11.548,0,0,1-.08,1.66c-.148.786-.384,1.273-1.1,1.273H1.619v.3h4.66v-.3H6.227a.883.883,0,0,1-.687-.287c-.494-.5-.494-2.005-.494-2.646V3.053C5.046.86,5.344.12,6.227.12" transform="translate(9.317 0.179)" fill="#020203"/>
    </g>
    <g id="Group_45" data-name="Group 45" transform="translate(171.827 101.516)">
      <path id="Path_104" data-name="Path 104" d="M4.208,7.631H4.157v.3H8.871v-.3H8.818c-.894,0-1.34-.689-1.905-2.946L6.484,3.151a3.749,3.749,0,0,0-3.9-3.188C5.546-1.35,7.236-3.616,7.236-6.285A4.369,4.369,0,0,0,4.57-10.366,11.409,11.409,0,0,0-.4-11.4c-.554-.018-1.094-.013-1.667-.007-.282,0-.567.007-.854.007H-6.3v.3h.052c.884,0,1.181.741,1.181,2.933V4.7a11.56,11.56,0,0,1-.08,1.662c-.123.661-.342,1.271-1.1,1.271H-6.3v.3h4.661v-.3h-.052A.922.922,0,0,1-2.4,7.345c-.469-.5-.469-2.005-.469-2.648V1.136A15.818,15.818,0,0,0,.49.67,3.958,3.958,0,0,1,2.635.749c.741.287,1.251,1.158,1.763,3l.3,1.123c.36,1.44.409,2.194.16,2.521a.755.755,0,0,1-.646.234M-.52.373-.76.428A13.416,13.416,0,0,1-2.869.672V-10.916H-.4c3.1.06,5.015.856,5.015,4.631A6.7,6.7,0,0,1,2.567-1.121,7.024,7.024,0,0,1-.52.373" transform="translate(6.297 11.418)" fill="#020203"/>
    </g>
    <g id="Group_46" data-name="Group 46" transform="translate(187.132 101.528)">
      <path id="Path_105" data-name="Path 105" d="M4.724.207c2.859,0,4.618.749,5.53,2.356l.015.027h.324L9.342-.31H-5.843l-1.225,2.9h.3l.017-.025C-5.8.935-4.085.207-1.2.207H.651V15.794c0,.686,0,2.114-.494,2.646a.925.925,0,0,1-.687.285H-.582v.3H4.106v-.3H4.053c-.757,0-.988-.519-1.1-1.3a11.307,11.307,0,0,1-.105-1.635V.207Z" transform="translate(7.068 0.31)" fill="#020203"/>
    </g>
    <g id="Group_47" data-name="Group 47" transform="translate(206.268 101.528)">
      <path id="Path_106" data-name="Path 106" d="M2.115.207c2.878,0,4.645.749,5.557,2.356l.015.027H8.01L6.786-.31h-9.95v.3h.052c.9,0,1.208.739,1.208,2.931V15.794c0,.641,0,2.14-.5,2.649a.894.894,0,0,1-.712.282h-.052v.3h9.95l1.225-2.9H7.687l-.015.025c-.913,1.608-2.679,2.357-5.557,2.357H.264V8.37h2.87c.344,0,2.064.07,2.064,1.453v.053H5.49v-3.5H5.2v.053C5.2,7.5,4.086,7.88,3.134,7.88H.264V.207Z" transform="translate(3.164 0.31)" fill="#020203"/>
    </g>
    <g id="Group_48" data-name="Group 48" transform="translate(218.918 101.527)">
      <path id="Path_107" data-name="Path 107" d="M4.907,0V.3h.052c1.408,0,1.45,1.894,1.45,2.11v14.9L-3.673.12V0H-7.1V.3H-7c.652.047,1.046.409,1.131,2.11V16.925c0,.354-.068,2.11-1.423,2.11h-.052v.3h3.428v-.3h-.052c-1.031,0-1.4-1.136-1.4-2.11V1.562L5,19.309l.015.025H8.12v-.3l-.075,0c-.767-.048-1.158-.516-1.158-2.933V2.409c0-.974.365-2.11,1.395-2.11h.053V0Z" transform="translate(7.342)" fill="#020203"/>
    </g>
  </g>
</svg>
